<?xml version="1.0" encoding="utf-8"?>
<!-- Generator: Adobe Illustrator 18.0.0, SVG Export Plug-In . SVG Version: 6.00 Build 0)  -->
<!DOCTYPE svg PUBLIC "-//W3C//DTD SVG 1.1//EN" "http://www.w3.org/Graphics/SVG/1.1/DTD/svg11.dtd">
<svg version="1.1" id="Layer_1" xmlns="http://www.w3.org/2000/svg" xmlns:xlink="http://www.w3.org/1999/xlink" x="0px" y="0px"
	 viewBox="0 0 841.9 595.3" enable-background="new 0 0 841.9 595.3" xml:space="preserve">
<g id="Layer_2">
</g>
<g id="Layer_3">
	<g>
		<path fill="#717E91" d="M581.1,283.4c2.7,0,4.9-2.2,4.9-4.9c0-2.7-2.2-4.9-4.9-4.9c-2.7,0-4.9,2.2-4.9,4.9
			C576.2,281.2,578.4,283.4,581.1,283.4z"/>
		<path fill="#717E91" d="M627.8,57.6H214.1c-18.2,0-33.1,14.9-33.1,33.1v413.7c0,18.2,14.9,33.1,33.1,33.1h413.7
			c18.2,0,33.1-14.9,33.1-33.1V90.8C660.9,72.6,646,57.6,627.8,57.6z M405,214c3.6,1.4,9.2,3.4,14.4,5.2l-47.3,19l-5.7-9.8l37.3-15
			C404,213.6,404.5,213.8,405,214z M363.5,201.2c7.1,0.9,16.5,3.8,25.5,6.9l-28,11.2l-4.5-7.6C353.6,206.7,357.7,200.5,363.5,201.2z
			 M240.3,476.7c-10.7,4-19-9.8-10.4-17.3c6.7-5.9,28.3-23.6,34.3-28.4c0.2-0.2,0.5-0.3,0.7-0.5l-8.3,35.9
			C250.3,470.6,242.7,475.8,240.3,476.7z M291.1,429.7c0.1,0.9,0.7,23.7-0.9,30.2c-2.1,8.3-9.8,21.8-21.5,24.9
			c-2.7,0.7-5.3-1.6-4.6-4.4l4.3-18.6c0-0.1,0-0.1,0-0.1l9.7-42.1c2.6-9.4,6.9-29.6,9-38.6c7.4-32.1,23.3-63.7,40.4-87.3
			c8.6-11.9,44.1-44,44.3-44.2l77.4-31.1c57-19.9,147.8,32.4,154.6,69.5c0.2,1.3,0.8,2.4,1.7,3.3c2.8,3,7.7,7.5,7.7,7.5
			c3.5,3.2,3.8,8.6,0.7,12.2c-3.2,3.5-8.6,3.8-12.2,0.7c0,0-4.8-3.2-5.5-3.3c-16.5-3-38.3,5.9-54.4,3.2c-5.7-0.9-10.8-3.5-16.5-4.2
			c-5.4-0.7-9.1,1.9-12.7,3.9c-1.9,1.1-3.9,2.5-5.6,3.6c-11,7.4-22,15.1-37.4,19.2c-3.1,0.8-6.4,1.3-9.5,1.5
			c-6.7,0.5-10.2-7.7-5.3-12.2c2.6-2.4,5.2-5,7.6-7.6c4.8-5.2-0.4-13.5-7.2-11.5C403.1,319.5,289.2,398.3,291.1,429.7z M615.8,336.1
			v131.5c0,13.7-11.2,24.9-24.9,24.9H327.1c-0.3,0-0.5,0-0.7,0l32.9-30l52.5-13.7l20.2-46.2l36.3-0.9c15.6-17.9,34.2-31.2,52.8-41
			l0.9-1l2.1-0.5C573.1,334.2,621.5,332.9,615.8,336.1z"/>
	</g>
</g>
</svg>
