<?xml version="1.0" encoding="utf-8"?>
<!-- Generator: Adobe Illustrator 18.0.0, SVG Export Plug-In . SVG Version: 6.00 Build 0)  -->
<!DOCTYPE svg PUBLIC "-//W3C//DTD SVG 1.1//EN" "http://www.w3.org/Graphics/SVG/1.1/DTD/svg11.dtd">
<svg version="1.1" id="Layer_1" xmlns="http://www.w3.org/2000/svg" xmlns:xlink="http://www.w3.org/1999/xlink" x="0px" y="0px"
	 viewBox="0 0 841.9 595.3" enable-background="new 0 0 841.9 595.3" xml:space="preserve">
<g id="Layer_2">
</g>
<path opacity="0.62" fill="#717E91" d="M501.8,398.1l-64.6,1.6l-24.4,55.9l-63.6,16.6l-39.8,36.3h320.2c16.5,0,30.1-13.5,30.1-30.1
	V319.3l-113.5,28.4L501.8,398.1z"/>
<path fill="#717E91" d="M469.9,412.7c-41.5,57.8-147.7,96.6-160.5,95.7h320.2c16.5,0,30.1-13.5,30.1-30.1v-159
	C669.9,313.6,536.5,319.7,469.9,412.7z"/>
<g>
	<path fill="#717E91" d="M404.6,171.6c-0.5-0.2-1.2-0.4-1.7-0.6l-45.1,18.1l6.9,11.9l57.3-23C415.8,175.7,409,173.3,404.6,171.6z"/>
	<path fill="#717E91" d="M351.3,178.1l33.8-13.6c-10.8-3.7-22.2-7.2-30.8-8.3c-7-0.9-12,6.6-8.4,12.7L351.3,178.1z"/>
	<path fill="#717E91" d="M656.6,274.2c0,0-5.9-5.5-9.3-9.1c-1.1-1.1-1.8-2.5-2.1-4.1C636.9,216.3,527,153,458,177l-93.7,37.6
		c-0.3,0.3-43.2,39.1-53.6,53.5c-20.6,28.6-39.9,66.8-48.9,105.7c-2.5,10.8-7.7,35.3-10.9,46.7l-11.8,50.9c0,0.1,0,0.1,0,0.2
		l-5.2,22.5c-0.8,3.3,2.3,6.2,5.6,5.3c14.1-3.8,23.4-20.2,26-30.1c2-7.9,1.2-35.5,1.1-36.6c-2.3-38,135.5-133.4,198.8-151.9
		c8.3-2.4,14.5,7.6,8.7,13.9c-2.9,3.2-6.1,6.3-9.2,9.2c-6,5.4-1.7,15.4,6.4,14.8c3.8-0.3,7.7-0.9,11.5-1.9
		c18.6-4.9,31.9-14.3,45.3-23.2c2.1-1.4,4.4-3.1,6.7-4.4c4.3-2.5,8.9-5.6,15.4-4.7c6.8,0.9,13,4,19.9,5.1
		c19.5,3.2,45.7-7.6,65.8-3.9c0.8,0.2,6.7,4,6.7,4c4.3,3.9,10.9,3.5,14.7-0.8C661.2,284.7,660.9,278,656.6,274.2z M617.6,255.6
		c-3.3,0-5.9-2.7-5.9-6s2.7-5.9,5.9-5.9c3.3,0,6,2.7,6,5.9C623.6,253,620.9,255.6,617.6,255.6z"/>
	<path fill="#717E91" d="M235,433.6c-0.3,0.2-0.6,0.4-0.9,0.6c-7.2,5.8-33.4,27.2-41.5,34.3c-10.4,9.1-0.3,25.8,12.6,21
		c3-1.1,12.2-7.3,19.7-12.4L235,433.6z"/>
</g>
</svg>
