<?xml version="1.0" encoding="utf-8"?>
<!-- Generator: Adobe Illustrator 18.0.0, SVG Export Plug-In . SVG Version: 6.00 Build 0)  -->
<!DOCTYPE svg PUBLIC "-//W3C//DTD SVG 1.1//EN" "http://www.w3.org/Graphics/SVG/1.1/DTD/svg11.dtd">
<svg version="1.1" id="Layer_1" xmlns="http://www.w3.org/2000/svg" xmlns:xlink="http://www.w3.org/1999/xlink" x="0px" y="0px"
	 viewBox="0 0 841.9 595.3" enable-background="new 0 0 841.9 595.3" xml:space="preserve">
<g id="Layer_2">
	<g>
		<path fill="#0F2647" d="M214.1,57.6h413.7c18.2,0,33.1,14.9,33.1,33.1v413.7c0,18.2-14.9,33.1-33.1,33.1H214.1
			c-18.2,0-33.1-14.9-33.1-33.1V90.8C180.9,72.6,195.9,57.6,214.1,57.6z"/>
	</g>
</g>
<g id="Layer_3">
	<path opacity="0.62" fill="#717E91" enable-background="new    " d="M485.3,400.7l-53.4,1.3l-20.2,46.2l-52.5,13.7l-32.9,30h264.6
		c13.7,0,24.9-11.2,24.9-24.9V335.6L522,359L485.3,400.7z"/>
	<path fill="#717E91" d="M459,412.8c-34.3,47.8-122.1,79.8-132.6,79.1H591c13.7,0,24.9-11.2,24.9-24.9V335.6
		C624.2,330.9,514.1,335.9,459,412.8z"/>
	<g>
		<path fill="#717E91" d="M405,213.5c-0.4-0.2-1-0.4-1.4-0.5l-37.3,15l5.7,9.8l47.3-19C414.2,216.9,408.6,214.9,405,213.5z"/>
		<path fill="#717E91" d="M361,218.8l28-11.2c-8.9-3.1-18.4-5.9-25.5-6.9c-5.8-0.7-9.9,5.5-6.9,10.5L361,218.8z"/>
		<path fill="#717E91" d="M613.3,298.3c0,0-4.9-4.5-7.7-7.5c-0.9-0.9-1.5-2.1-1.7-3.3c-6.8-37-97.7-89.3-154.6-69.5l-77.4,31.1
			c-0.2,0.2-35.7,32.3-44.3,44.2c-17.1,23.6-32.9,55.2-40.4,87.3c-2.1,8.9-6.4,29.2-9,38.6l-9.7,42.1c0,0.1,0,0.1,0,0.1l-4.3,18.6
			c-0.6,2.8,1.9,5.1,4.6,4.4c11.7-3.2,19.3-16.7,21.5-24.9c1.7-6.5,1-29.4,0.9-30.2c-1.9-31.4,112-110.2,164.3-125.5
			c6.8-2,12,6.3,7.2,11.5c-2.4,2.6-5,5.2-7.6,7.6c-5,4.5-1.4,12.7,5.3,12.2c3.1-0.2,6.4-0.7,9.5-1.5c15.4-4.1,26.4-11.8,37.4-19.2
			c1.7-1.1,3.7-2.5,5.6-3.6c3.6-2,7.3-4.6,12.7-3.9c5.6,0.7,10.8,3.3,16.5,4.2c16.1,2.7,37.8-6.2,54.4-3.2c0.7,0.1,5.5,3.3,5.5,3.3
			c3.5,3.2,9,2.9,12.2-0.7C617.1,306.9,616.8,301.5,613.3,298.3z M581.1,282.9c-2.7,0-4.9-2.2-4.9-4.9c0-2.7,2.2-4.9,4.9-4.9
			c2.7,0,4.9,2.2,4.9,4.9C586,280.7,583.8,282.9,581.1,282.9z"/>
		<path fill="#717E91" d="M264.9,430c-0.2,0.2-0.5,0.3-0.7,0.5c-6,4.8-27.6,22.5-34.3,28.4c-8.6,7.5-0.3,21.3,10.4,17.3
			c2.4-0.9,10.1-6.1,16.3-10.3L264.9,430z"/>
	</g>
</g>
</svg>
